<svg width="1811" height="975" viewBox="0 0 1811 975" fill="none" xmlns="http://www.w3.org/2000/svg">
<path d="M69.9273 665.629C84.3982 664.941 98.8693 664.322 113.34 663.785C142.421 662.712 171.501 662.163 200.593 661.93C258.177 661.44 315.737 662.186 373.309 664.357C391.219 665.022 409.141 665.933 427.074 666.551C305.952 676.751 184.01 676.669 62.9109 666.084C65.2535 665.933 67.6077 665.746 69.9273 665.629ZM397.07 653.936C420.658 656.246 444.222 659.922 467.809 662.805C466.159 662.98 464.497 663.19 462.836 663.365C461.093 663.54 459.339 663.657 457.585 663.832C432.578 660.821 407.387 659.526 382.23 658.324C353.715 656.958 325.189 656.025 296.651 655.348C239.655 654.006 182.683 653.982 125.676 654.764C115.694 654.893 105.736 655.149 95.7651 655.359C195.804 644.565 296.985 644.11 397.07 653.936ZM321.819 770.554C306.171 774.826 290.477 778.887 274.748 782.749C273.986 782.936 273.201 783.088 272.428 783.251C279.791 780.941 287.176 778.7 294.516 776.319C324.231 766.68 353.784 756.574 383.268 746.246C442.594 725.45 501.69 703.989 560.866 682.761C583.831 674.522 606.795 666.306 629.771 658.125C530.078 703.533 427.489 741.776 321.819 770.554ZM650.404 650.75C648.211 652.022 646.007 653.294 643.815 654.566C628.871 663.225 613.927 671.908 598.971 680.567C569.14 697.862 538.814 714.41 507.183 728.122C448.942 753.353 387.031 767.929 324.785 778.852C348.776 771.931 372.663 764.673 396.378 756.854C452.611 738.31 508.06 716.265 562.448 692.774C592.059 679.983 620.77 665.828 649.435 651.1C649.758 650.972 650.081 650.867 650.404 650.75ZM628.663 606.404C595.613 597.044 563.717 583.986 533.425 567.694C470.925 534.073 417.842 485.164 354.511 452.978C346.018 448.66 337.374 444.646 328.569 441.051C330.012 441.343 331.489 441.518 332.943 441.833C369.974 449.979 405.321 464.076 438.36 482.783C502.475 519.112 558.985 568.546 626.955 597.955C651.662 608.644 677.823 616.592 704.503 619.276C700.187 619.556 695.882 619.708 691.567 619.871C687.805 619.322 684.019 618.867 680.269 618.225C662.878 615.226 645.638 611.212 628.663 606.404ZM628.917 617.222C593.72 612.344 559.262 602.133 526.859 587.417C493.255 572.141 463.597 551.251 434.828 528.203C405.586 504.793 376.529 481.698 342.81 465.15C315.391 451.683 285.538 440.701 255.326 433.431C257.992 433.431 260.681 433.466 263.358 433.512C275.036 435.321 286.668 437.188 298.139 440.538C314.41 445.287 330.208 451.589 345.487 458.976C377.337 474.346 406.637 494.36 435.567 514.654C464.313 534.797 492.92 555.277 523.65 572.269C553.712 588.899 585.804 601.887 618.75 611.328C630.117 614.584 641.622 617.198 653.185 619.509C645.119 619.019 637.041 618.342 628.917 617.222ZM751.412 577.345C716.481 566.329 684.389 548.252 654.431 527.246C594.09 484.954 541.099 432.205 475.31 398.059C466.332 393.402 457.135 389.131 447.753 385.338C485.084 393.461 521.377 406.613 555.443 424.036C592.278 442.872 624.578 467.951 656.959 493.59C688.451 518.528 720.035 544.062 756.167 561.906C784.658 575.968 817.836 585.935 850.113 584.149C849.605 584.382 849.189 584.838 848.693 585.141C834.338 586.821 820.224 588.63 805.499 587.662C787.139 586.448 768.964 582.877 751.412 577.345ZM756.963 590.112C716.112 584.172 678.134 567.834 643.503 545.44C577.103 502.517 522.704 443.047 453.281 404.501C436.49 395.176 418.938 387.381 400.809 381.639C406.025 382.584 411.207 383.67 416.33 384.988C434.055 389.551 451.215 396.297 467.694 404.267C501.344 420.512 531.74 442.475 561.166 465.465C618.9 510.57 675.307 561.287 746.289 583.682C758.602 587.568 771.238 590.533 784.024 592.423C774.977 592.061 765.953 591.419 756.963 590.112ZM923.321 542.195C888.979 536.535 856.644 522.286 825.798 506.508C794.79 490.649 764.983 472.467 736.641 452.149C710.215 433.221 685.843 411.409 659.036 393.017C667.275 396.378 675.457 399.856 683.535 403.567C710.63 415.996 736.826 430.361 761.902 446.536C810.404 477.8 855.813 516.848 911.666 534.26C929.726 539.908 948.766 543.561 967.692 543.421C953.128 544.914 938.334 544.669 923.321 542.195ZM620.862 367.74C633.256 368.907 645.592 370.611 657.732 373.4C692.074 381.301 724.282 395.818 753.951 414.887C812.227 452.336 863.429 504.268 929.622 527.806C945.731 533.524 962.464 537.201 979.255 538.321C927.96 539.056 880.578 517.735 837.303 489.563C812.873 473.657 789.436 456.281 765.202 440.094C741.869 424.538 717.554 410.499 692.432 398.129C669.606 386.891 645.488 375.559 620.862 367.74ZM1069.31 485.596C1054.03 482.982 1038.85 479.609 1023.94 475.373C995.814 467.425 968.499 456.654 942.5 443.234C888.044 415.085 842.092 372.793 786.886 345.906C777.019 341.097 766.876 336.85 756.513 333.267C764.533 334.41 772.53 335.834 780.458 337.55C813.52 344.692 845.37 356.794 876.262 370.529C939.304 398.561 996.576 438.367 1058.07 469.526C1074.93 478.08 1094.06 487.171 1112.99 489.19C1110.81 489.75 1108.6 490.17 1106.41 490.649C1094.06 488.863 1081.64 487.696 1069.31 485.596ZM930.938 459.583C874.854 430.77 827.229 388.991 772.992 357.237C758.544 348.788 743.611 341.389 727.79 335.881C726.452 335.414 724.986 335.064 723.613 334.609C728.056 335.321 732.498 336.114 736.883 337.235C751.735 341.016 766.149 346.571 780.02 353.071C807.831 366.083 833.241 383.343 858.687 400.451C884.005 417.478 909.3 434.504 936.419 448.508C962.43 461.929 989.675 472.817 1017.79 480.823C1032.9 485.129 1048.24 488.688 1063.73 491.337C1070.08 492.411 1076.52 493.415 1083 494.278C1030.62 499.191 977.766 483.623 930.938 459.583ZM1155.55 493.111C1142.16 505.645 1129.38 518.832 1117.11 532.498C1091.44 561.077 1067.86 591.653 1045.32 622.8C999.865 685.632 959.914 752.372 912.739 813.967C899.445 831.308 885.759 848.358 871.207 864.661C869.28 866.809 867.214 868.827 865.264 870.963C890.144 836.502 912.681 800.196 934.434 763.867C980.605 686.799 1026.41 607.256 1090.11 543.316C1106.38 526.978 1123.57 511.596 1142.05 497.849C1151.74 490.637 1161.84 484.207 1172.04 477.975C1166.37 482.982 1160.87 488.128 1155.55 493.111ZM1189.98 470.075C1170.39 491.139 1153.51 515.389 1138.1 538.858C1114.16 575.35 1092.8 613.476 1068.92 650.015C1017.82 728.192 954.502 796.368 887.328 860.542C883.036 864.661 878.604 868.618 874.265 872.679C886.163 859.608 897.668 846.176 908.712 832.359C933.072 801.888 955.333 769.737 977.131 737.365C1019.93 673.775 1060.06 607.676 1109.83 549.279C1124 532.649 1138.85 516.615 1154.6 501.49C1161.98 494.395 1169.52 487.486 1177.26 480.788C1181.44 477.147 1185.76 473.657 1189.98 470.075ZM1090.6 393.216C1044.18 375.874 1000.95 351.554 956.844 329.136C977.155 337.445 997.188 346.466 1017.28 355.288C1072.17 379.41 1127.4 400.93 1187.43 406.905C1216.31 409.776 1244.68 408.819 1273.27 406.228C1213.79 424.725 1148.54 414.875 1090.6 393.216ZM899.768 299.902C893.583 298.163 887.052 296.156 880.439 294.569C876.862 293.239 873.25 291.932 869.603 290.636C906.208 298.14 941.831 309.635 976.947 322.367C1047.84 348.099 1117.31 379.212 1191.75 393.216C1225.35 399.541 1260.07 402.587 1294.1 398.537C1291.23 399.809 1288.33 400.906 1285.42 402.015C1224.71 405.819 1162.02 400.451 1104.2 381.347C1049.9 363.422 999.276 336.231 946.031 315.599C930.834 309.717 915.428 304.337 899.768 299.902ZM1309.69 405.749C1291.36 479.842 1255.07 549.757 1215.14 613.931C1173.2 681.314 1125.42 744.705 1081.23 810.548C1130.93 700.417 1181.88 590.486 1249.93 490.462C1268.93 462.559 1291.22 436.15 1308.46 406.986C1308.87 406.566 1309.29 406.17 1309.69 405.749ZM1108.71 716.814C1123.27 677.964 1138.75 639.687 1158.23 603.043C1177.57 566.679 1199.92 531.937 1224.87 499.261C1238.49 481.418 1252.99 464.251 1268.18 447.738C1273.43 442.032 1279.01 436.593 1284.56 431.132C1273.11 446.77 1261.98 462.687 1250.93 478.442C1232.02 505.435 1214.36 533.268 1197.53 561.626C1164.1 617.957 1134.34 676.459 1106.01 735.544C1099.67 748.755 1093.58 762.07 1087.35 775.304C1094.46 755.803 1101.43 736.256 1108.71 716.814ZM1327.34 338.25C1286.62 342.976 1245.39 342.696 1204.69 337.818C1164.03 332.952 1123.88 323.522 1085.36 309.518C1045.09 294.872 1008.27 273.4 969.457 255.533C953.359 248.122 936.961 241.144 920.148 235.519C934.976 238.156 949.69 241.412 964.207 245.392C998.676 254.879 1032.26 267.32 1065.68 279.982C1130.82 304.652 1197.51 330.011 1267.38 336.126C1295.72 338.612 1323.36 337.328 1350.6 331.551C1360.75 331.213 1371 330.454 1381.18 328.996C1363.39 332.987 1345.44 336.173 1327.34 338.25ZM960.664 227.875C1003.87 234.83 1045.46 248.764 1086.31 264.25C1164.83 293.986 1243.14 328.902 1328.28 331.61C1274.65 336.161 1219.29 325.751 1168.96 309.203C1102.43 287.345 1038.81 257.108 971.35 238.051C950.093 232.041 927.741 226.428 905.238 223.172C923.806 223.207 942.35 224.934 960.664 227.875ZM1320.28 263.177C1281.25 255.731 1243.29 243.629 1206.07 229.8C1169.15 216.077 1133.17 199.972 1096.21 186.435C1085.7 182.584 1075.05 178.908 1064.28 175.687C1075.05 177.472 1085.79 179.491 1096.48 181.848C1131.97 189.679 1166.83 200.1 1201.65 210.58C1268.59 230.746 1336.29 251.098 1406.3 256.245C1443.01 258.952 1480.4 257.435 1516.01 247.586C1516.25 247.551 1516.48 247.539 1516.71 247.504C1454.79 273.75 1386.26 275.78 1320.28 263.177ZM1038.37 160.621C1052.94 159.535 1067.56 159.535 1082.12 160.422C1121.56 162.826 1160.3 171.45 1198.14 182.63C1274.04 205.048 1347.93 237.059 1426.85 247.469C1438.07 248.951 1449.32 249.78 1460.56 250.235C1445.33 251.192 1430.05 251.448 1414.7 250.561C1379.53 248.531 1344.78 242.311 1310.62 233.78C1242.66 216.812 1176.87 192.036 1108.96 174.835C1089.76 169.968 1070.4 165.954 1050.91 162.406C1046.76 161.659 1042.56 161.239 1038.37 160.621ZM1527.56 348.998C1514.68 390.462 1503.86 432.567 1493.31 474.673C1472.41 558.172 1449.63 643.024 1404.9 717.199C1397.12 730.106 1388.45 742.208 1379.38 753.959C1406.85 710.138 1427.13 661.463 1442.81 612.145C1472.17 519.871 1487.62 423.348 1522.67 332.893C1535.19 300.579 1550.37 269.63 1568.51 240.42C1550.68 274.66 1538.98 312.249 1527.56 348.998ZM1527.4 502.914C1509.03 587.813 1470.02 667.951 1414.7 734.471C1401.05 750.879 1386.31 766.318 1370.82 780.952C1407.93 737.878 1435.1 684.931 1455.05 632.813C1487.5 548.019 1503.52 458.358 1527.12 370.926C1533.59 346.967 1540.88 323.277 1549.4 299.961C1553.87 287.73 1558.79 275.699 1563.84 263.725C1547.07 342.509 1544.48 424.06 1527.4 502.914ZM1402.78 528.11C1392.36 575.688 1381.49 623.395 1364.09 668.943C1348.37 710.092 1326.86 748.673 1299.65 783.158C1277.79 810.862 1252.58 834.191 1225.34 855.512C1328.12 746.572 1332.36 583.11 1392.42 451.052C1401.24 431.669 1411.28 412.798 1423.23 395.176C1430.39 384.592 1438.47 374.812 1446.55 365.021C1426.47 417.408 1414.72 473.459 1402.78 528.11ZM1263.01 781.349C1281.18 740.726 1294.28 698.037 1306.46 655.266C1319.16 610.593 1330.54 565.477 1346.88 521.995C1363.05 478.944 1384.01 438.519 1411.92 402.038C1414.2 399.039 1416.63 396.098 1418.97 393.146C1411.06 405.224 1403.63 417.653 1396.96 430.443C1379.33 464.204 1366.06 499.985 1354.69 536.325C1330.76 612.741 1313.78 692.435 1277.64 764.299C1267.75 783.963 1256.26 802.81 1243.06 820.292C1250.26 807.595 1257.04 794.676 1263.01 781.349ZM891.287 696.94C861.421 733.49 829.814 768.29 793.521 798.434C759.744 826.477 722.932 850.692 683.985 870.765C675.699 875.059 667.287 879.085 658.817 882.937C694.856 861.977 728.275 836.852 759.352 808.96C791.525 780.089 821.032 748.148 849.478 715.553C876.342 684.733 900.899 651.87 928.364 621.61C943.239 605.225 959.21 589.576 976.993 576.435C990.218 566.667 1004.1 558.475 1018.64 551.286C970.796 594.092 931.688 647.505 891.287 696.94ZM607.695 898.481C622.616 890.767 637.191 882.318 651.304 873.379C686.085 851.346 718.604 825.532 747.846 796.392C778.808 765.525 805.28 730.678 833.218 697.091C861.791 662.735 893.098 631.996 929.114 605.692C939.996 597.756 951.155 590.217 962.453 582.912C954.998 589.389 947.82 596.122 940.931 602.903C912.97 630.421 887.525 660.634 861.929 690.381C805.534 755.943 744.523 819.428 671.06 865.548C651.396 877.895 630.867 888.877 609.461 897.828C608.884 898.061 608.284 898.248 607.695 898.481ZM672.353 735.848C622.466 774.872 567.34 806.44 511.257 835.311C504.137 838.976 496.947 842.5 489.735 846.013C489.873 845.908 490.035 845.814 490.185 845.709C516.427 828.146 542.53 810.384 568.379 792.249C619.72 756.247 670.183 718.938 720.589 681.605C734.703 671.161 748.804 660.681 762.779 650.05C768.203 645.918 773.765 641.846 779.292 637.714C779.489 638.333 779.846 638.858 780.377 639.243C744.442 671.511 710.423 706.054 672.353 735.848ZM701.618 726.815C672.953 756.41 639.58 779.108 603.149 797.757C587.812 805.611 572.175 812.811 556.481 819.848C566.567 814.13 576.664 808.424 586.566 802.367C613.269 786.075 639.21 768.512 663.906 749.245C689.524 729.277 713.515 707.303 737.184 685.06C740.819 681.629 744.523 678.279 748.169 674.872C732.729 692.26 717.773 710.139 701.618 726.815ZM430.109 873.927C440.125 862.071 450.511 850.541 461.751 839.583C486.065 815.881 512.457 794.279 539.783 774.219C601.221 729.149 668.464 693.089 735.383 657.203C746.808 651.065 758.301 645.043 769.76 638.963C768.249 640.13 766.737 641.309 765.225 642.452C752.578 651.917 739.93 661.416 727.259 670.834C702.241 689.413 677.177 707.956 651.616 725.776C600.494 761.417 548.796 796.31 496.855 830.737C482.222 840.434 467.555 850.05 452.831 859.608C445.376 864.44 437.656 869.061 430.109 873.927ZM4.2426 671.826C71.993 682.749 141.52 685.55 210.044 686.67C277.771 687.779 345.533 685.725 413.076 680.438C480.595 675.152 547.642 666.294 614.18 654.484C569.891 670.67 525.509 686.623 481.173 702.693C422.804 723.839 364.459 745.172 305.548 764.801C289.046 770.309 272.497 775.666 255.892 780.859C247.398 783.52 238.894 786.227 230.377 788.853C221.93 791.455 213.056 793.416 205.105 797.325C204.228 797.757 203.939 798.527 203.882 799.286C202.393 801.153 203.247 804.689 205.971 804.806C221.919 805.518 238.87 801.492 254.668 799.123C271.39 796.602 288.088 793.848 304.729 790.918C337.975 785.072 371.059 778.163 403.717 769.597C434.909 761.428 465.594 751.509 495.54 739.465C527.77 726.523 558.57 710.442 588.908 693.509C605.814 684.056 622.524 674.265 639.234 664.462C647.842 659.397 656.451 654.332 665.06 649.279C668.81 647.062 672.803 644.915 676.715 642.628C717.704 634.12 758.452 624.294 798.979 613.487C796.545 614.818 794.11 616.171 791.698 617.432C774.111 626.628 756.593 635.964 739.122 645.358C705.391 663.47 671.66 681.605 638.483 700.744C575.533 737.05 514.176 777.253 461.959 828.449C435.936 853.972 410.433 882.108 391.9 913.827C391.45 914.282 390.965 914.691 390.527 915.146C389.627 916.091 389.604 917.2 390.054 918.122C390.146 918.46 390.377 918.717 390.642 918.974C390.7 919.044 390.758 919.114 390.827 919.184C391 919.312 391.127 919.44 391.323 919.545C392.385 920.246 393.781 920.444 394.935 919.557C425.308 896.24 457.054 876.156 491.374 859.305C525.22 842.687 560.116 828.344 593.894 811.551C627.601 794.816 660.363 775.444 688.358 749.933C720.093 721.027 745.596 686.11 775.369 655.278C782.085 648.322 789.159 641.659 796.475 635.287C802.361 632.568 808.107 629.289 813.6 626.686C824.286 621.621 835.03 616.673 845.774 611.69C866.453 602.109 887.202 592.668 908.066 583.531C917.113 579.574 926.194 575.758 935.288 571.966C964.83 561.906 994.233 551.438 1023.33 540.095C1025.4 539.453 1027.51 538.799 1029.66 538.157C1018.37 544.226 1007.27 550.738 996.334 557.028C978.216 567.414 960.306 578.209 942.881 589.774C906.9 613.651 873.919 641.087 844.746 673.121C815.193 705.587 789.009 741.017 759.155 773.215C730.756 803.837 698.941 831.238 664.644 854.835C626.367 881.151 584.962 900.395 543.141 919.989C543.003 920.036 542.853 920.082 542.703 920.129C542.483 920.211 542.357 920.351 542.16 920.444C541.987 920.537 541.803 920.619 541.641 920.701C541.572 920.736 541.572 920.794 541.514 920.829C537.983 923.443 540.499 930.142 545.322 929.477C563.786 926.898 581.95 919.872 599.19 912.602C663.882 892.016 725.124 860.087 779.223 818.833C814.985 791.56 847.043 760.121 876.435 725.998C908.538 688.747 938.15 649.419 970.588 612.46C1002.82 575.735 1038.29 542.335 1079.84 516.86C1100.8 507.99 1121.6 498.748 1142.29 489.272C1126.98 500.113 1112.34 511.935 1098.54 524.69C1067.95 552.99 1041.26 585.526 1017.07 619.497C963.249 695.119 921.509 778.653 867.988 854.485C839.161 895.33 806.55 933.41 768.11 965.327C762.848 969.692 769.507 978.222 774.596 973.729C774.711 973.624 774.815 973.508 774.93 973.403C775.6 973.298 776.292 973.076 776.938 972.481C845.496 910.921 914.862 849.63 976.104 780.427C1006.72 745.825 1036.12 709.975 1062.02 671.604C1086.59 635.194 1107.92 596.718 1131.15 559.444C1143.81 539.091 1157.05 519.077 1171.65 500.09C1183.52 484.627 1196.58 470.506 1210.02 456.596C1239.69 441.553 1269 425.752 1297.98 409.344C1288.46 418.003 1279.56 427.561 1270.84 436.675C1256.67 451.496 1243.11 466.9 1230.19 482.83C1204.57 514.397 1181.32 547.867 1160.93 583.11C1140.3 618.704 1122.74 655.943 1107.46 694.174C1091.72 733.595 1078.51 774.02 1063.11 813.593C1054.61 835.463 1045.53 857.123 1035.27 878.234C1030.17 888.737 1024.77 899.111 1018.99 909.253C1013.02 919.732 1005.95 929.593 1000.65 940.435C998.734 944.379 1004.25 946.853 1006.83 944.029C1020.08 929.488 1029.43 909.859 1038.42 892.389C1039.32 890.627 1040.1 888.818 1040.98 887.068C1053.12 867.661 1065.38 848.335 1078.15 829.289C1101.31 794.723 1125.63 760.95 1149.56 726.92C1195.75 661.23 1241.31 594.5 1276.17 521.784C1295.46 481.558 1310.04 439.978 1320.97 396.682C1321.03 396.472 1320.97 396.308 1321 396.098C1376.57 363.737 1430.67 328.785 1483.01 291.395C1475.34 303.345 1468.47 315.703 1462.29 328.377C1447.69 348.776 1431.19 367.868 1415.24 387.299C1386.99 421.714 1364.52 458.988 1347.41 500.253C1312.72 583.881 1297.19 674.02 1263.41 757.939C1254.2 780.824 1243.69 803.277 1231.07 824.458C1222.96 838.054 1213.5 850.389 1204 862.747C1203.74 862.981 1203.49 863.238 1203.22 863.471C1202.48 864.113 1202.07 864.848 1201.8 865.618C1197.17 871.628 1192.57 877.662 1188.1 883.87C1186.3 886.391 1189.48 889.705 1191.97 887.733C1194.87 885.446 1197.5 882.82 1200.16 880.229C1234.42 860.32 1265.07 832.791 1291.35 803.23C1319.37 771.721 1342.74 735.999 1360.29 697.523C1400.44 609.45 1410.08 511.818 1437.57 419.707C1452.43 369.876 1471.54 321.585 1501.8 279.118C1502.19 278.558 1502.41 277.998 1502.54 277.449C1519.65 264.927 1536.54 252.067 1553.33 239.055C1554.04 238.833 1554.77 238.67 1555.47 238.436C1556.42 238.109 1556.69 237.293 1556.69 236.452C1561.21 232.94 1565.77 229.485 1570.24 225.938C1526.55 289.539 1502.03 365.815 1481.53 439.662C1456.2 530.864 1437.32 625.041 1394.38 710.034C1372.39 753.539 1344.17 794.081 1308 826.734C1305.32 829.138 1306.39 832.755 1308.59 834.354C1309.01 836.07 1310.99 837.435 1312.96 836.222C1348.73 814.317 1380.55 784.068 1408.51 752.863C1436.86 721.225 1461.47 686.168 1482.05 648.918C1502.79 611.329 1518.81 571.02 1529.77 529.428C1542.61 480.799 1548.57 430.782 1554.61 380.939C1561.43 324.503 1568.57 267.763 1586.34 213.591C1586.6 213.229 1586.83 212.832 1587.08 212.47C1654.79 157.995 1719.47 99.5396 1779.31 36.4748C1790.08 25.1199 1800.44 13.4032 1810.73 1.61647C1811.63 0.589511 1810.03 -0.577475 1809.12 0.321117C1770.05 39.2757 1730.2 77.2382 1689.43 114.116C1665.96 132.858 1642.25 151.238 1617.45 168.241C1599.06 180.868 1580.56 193.343 1561.75 205.34C1552.53 211.222 1543.23 216.987 1533.87 222.635C1525.18 227.887 1513.39 232.531 1506.38 240.152C1442.03 244.003 1377.82 229.497 1316.3 209.658C1241.96 185.676 1168.23 155.836 1089.68 149.756C1068.65 148.134 1047.43 148.169 1026.46 150.514C1005.66 152.837 984.655 156.641 966.157 166.771C962.96 168.521 963.93 174.204 968.003 173.387C972.019 172.571 976.035 171.672 980.039 170.773C996.818 172.594 1013.52 173.493 1030.19 177.204C1049.67 181.533 1068.75 187.38 1087.5 194.207C1125.3 207.931 1162.08 224.362 1199.77 238.425C1271.18 265.056 1346.44 285.455 1423.2 280.075C1452.61 278.009 1482.25 272.093 1509.97 261.391C1491.17 275.022 1472.2 288.407 1453.01 301.478C1452.5 301.116 1451.91 300.894 1451.27 301.163C1449.56 301.863 1447.88 302.516 1446.17 303.216C1446.03 303.228 1445.88 303.333 1445.73 303.38C1428.87 310.207 1411.98 316.369 1394.05 319.998C1389.39 320.932 1384.71 321.702 1380.02 322.379C1379.87 322.32 1379.8 322.145 1379.62 322.192C1378.98 322.379 1378.34 322.519 1377.71 322.682C1363.16 324.643 1348.46 325.39 1333.78 325.063C1292.53 324.106 1251.96 314.723 1212.82 302.026C1131.29 275.594 1054.15 235.145 969.308 219.741C946.159 215.54 922.663 213.369 899.145 213.871C877.381 214.326 854.636 216.38 834.234 224.502C833.807 224.596 833.368 224.631 832.941 224.724C832.422 224.829 832.029 225.121 831.741 225.506C831.072 225.809 830.368 226.031 829.687 226.346C826.767 227.676 827.979 232.391 831.245 231.878C836.449 231.061 841.631 230.174 846.8 229.287C864.572 230.232 881.939 232.088 899.399 237.048C920.459 242.999 940.469 251.728 959.914 261.753C998.745 281.779 1036.64 303.508 1077.7 318.691C1155.08 347.294 1238.47 357.365 1320.41 349.08C1343.2 346.781 1365.87 343 1388.19 337.701C1393.62 336.418 1399 335.017 1404.35 333.442C1373.04 353.619 1341.4 373.272 1309.11 391.78C1272.7 394.639 1236.3 393.134 1200.33 386.599C1163.2 379.865 1127.08 368.627 1091.62 355.79C1020.29 329.988 951.028 297.568 876.85 280.612C856.563 275.979 835.988 272.524 815.251 270.762C804.934 269.887 794.583 269.455 784.22 269.502C777.596 269.525 770.961 269.607 764.475 270.611C762.133 270.657 759.79 270.611 757.471 270.762C755.601 270.891 754.378 271.988 753.686 273.4C753.593 273.435 753.489 273.458 753.397 273.493C749.485 275.115 750.777 280.518 754.505 281.277C759.432 282.257 764.372 282.374 769.345 282.269C785.259 283.261 800.999 284.673 816.762 287.847C835.872 291.71 854.567 297.335 872.881 303.987C909.046 317.139 943.551 334.516 978.17 351.32C1045.6 384.032 1114.27 419.485 1190.42 423.441C1216.85 424.806 1243.37 422.204 1268.44 414.514C1250.93 424.06 1233.33 433.466 1215.57 442.522C1188.09 456.526 1160.21 469.713 1132.16 482.526C1106.41 486.483 1078.51 471.335 1056.5 459.898C1026.21 444.179 996.864 426.709 967.322 409.6C909.981 376.376 851.428 343.793 786.539 328.634C768.803 324.491 750.743 321.76 732.556 320.78C714.035 319.788 695.109 319.858 677.176 324.993C673.091 326.16 673.853 331.703 678.146 331.586C680.281 331.528 682.427 331.423 684.562 331.353C698.179 334.854 711.715 337.701 724.859 343.093C738.811 348.811 752.243 355.977 765.202 363.714C791.755 379.574 816.428 398.502 841.7 416.357C893.514 452.978 949.032 487.264 1011.79 500.16C1035.4 505.015 1059.68 506.602 1083.59 504.233C1063.76 512.705 1043.73 520.699 1023.63 528.506C1022.82 528.238 1021.93 528.203 1021.02 528.635C1018.17 530 1015.29 531.179 1012.43 532.358C950.059 539.103 891.021 506.31 841.481 469.689C813.197 448.777 786.54 425.822 756.951 406.741C728.667 388.501 698.41 374.497 665.833 366.165C647.161 361.392 628.005 358.451 608.768 357.436C593.72 356.654 576.111 355.382 561.017 359.396C558.42 359.723 555.812 360.155 553.227 360.773C552.004 361.065 551.819 362.839 553.008 363.212C552.627 364.624 553.354 366.351 555.027 366.561C562.517 367.53 570.041 366.842 577.576 366.421C586.381 367.973 595.071 370.086 603.691 373.143C620.239 379.002 635.575 387.556 650.127 397.359C679.046 416.824 704.999 440.409 733.398 460.645C761.717 480.834 791.513 498.923 822.428 514.759C853.274 530.56 885.54 544.634 919.801 550.726C929.218 552.395 938.981 553.165 948.79 553.422C937.238 556.911 925.698 560.447 914.124 563.855C901.88 567.484 889.694 571.23 877.531 575.093L872.43 576.727C834.003 581.336 797.156 573.949 762.075 556.899C724.928 538.846 692.951 512.04 661.251 485.829C630.405 460.318 598.463 436.442 563.013 417.84C528.659 399.833 491.997 386.809 454.227 378.336C432.89 373.54 411.195 370.331 389.385 368.767C389.258 368.755 389.154 368.755 389.027 368.755C382.103 367.763 375.202 367.355 368.509 367.833C364.54 367.74 360.569 367.635 356.6 367.658C346.629 367.693 336.867 367.553 327.289 370.611C325.327 371.241 326.112 374.03 327.819 374.334C328.12 374.392 328.408 374.392 328.708 374.439C328.973 375.337 329.516 376.131 330.601 376.142C412.799 376.866 481.876 430.093 542.287 480.788C603.795 532.416 667.229 585.689 748.458 599.635C763.921 602.284 779.569 603.451 795.171 603.358C778.035 607.851 760.875 612.215 743.611 616.288C743.242 615.728 742.7 615.285 741.869 615.308C665.694 617.805 598.948 578.968 538.456 536.372C508.083 514.981 478.287 492.714 446.172 474.007C414.449 455.534 380.834 441.203 345.268 432.287C325.235 427.257 304.786 423.92 284.21 422.297C263.485 420.664 241.409 419.602 221.019 424.433C216.691 425.46 216.033 432.625 221.133 432.929C223.476 433.057 225.831 433.081 228.185 433.151C262.285 445.392 297.239 454.448 330.312 469.748C365.266 485.934 395.154 508.912 425.031 533.046C453.811 556.304 483.423 577.766 516.854 593.718C548.392 608.761 582.031 619.147 616.419 624.924C636.66 628.332 657.639 630.386 678.607 630.537C617.758 642.873 556.389 652.64 494.789 659.759C467.567 652.979 439.202 649.828 411.426 646.724C378.907 643.094 346.248 640.504 313.568 638.905C248.183 635.73 182.579 637.084 117.367 642.604C80.3245 645.72 43.3742 649.793 6.59677 655.266C2.53475 655.873 1.18423 659.631 1.8997 662.782C-1.07758 665.291 -0.742611 671.032 4.2426 671.826Z" fill="#002E5D"/>
</svg>
