<svg width="100" height="112" viewBox="0 0 100 112" fill="none" xmlns="http://www.w3.org/2000/svg">
<circle cx="50" cy="50" r="50" fill="#FBF8F1"/>
<path d="M19.12 55.56C18.5333 55.56 17.8533 55.4933 17.08 55.36C16.3333 55.2533 15.6 55.0533 14.88 54.76C14.1867 54.4667 13.6 54.0533 13.12 53.52C12.6667 52.96 12.44 52.2667 12.44 51.44C12.44 50.4533 12.88 49.56 13.76 48.76C14.64 47.9333 15.88 47.52 17.48 47.52C18.6533 47.52 19.7467 47.72 20.76 48.12C21.7733 48.4933 22.76 48.96 23.72 49.52C24.7067 50.0533 25.72 50.5867 26.76 51.12C28.0933 49.84 29.3067 48.2533 30.4 46.36C31.52 44.4667 32.6267 42.44 33.72 40.28C34.84 38.0933 36.04 35.9067 37.32 33.72C38.6267 31.5333 40.1333 29.48 41.84 27.56L44.16 24.96C43.1733 24.8 42.1467 24.68 41.08 24.6C40.0133 24.4933 38.9067 24.44 37.76 24.44C36.1867 24.44 34.4667 24.5733 32.6 24.84C30.76 25.1067 28.92 25.52 27.08 26.08C25.2667 26.64 23.6 27.3467 22.08 28.2C20.5867 29.0533 19.3867 30.0667 18.48 31.24C17.5733 32.4133 17.12 33.76 17.12 35.28C17.12 36.32 17.3467 37.1467 17.8 37.76C18.28 38.3733 18.8667 38.8267 19.56 39.12C20.28 39.3867 21 39.52 21.72 39.52C22.92 39.52 23.9333 39.2533 24.76 38.72C25.5867 38.16 26.2 37.52 26.6 36.8C27.0267 36.08 27.24 35.44 27.24 34.88C27.24 34.6933 27.3733 34.6 27.64 34.6C27.9067 34.6 28.04 34.8133 28.04 35.24C28.04 36.3333 27.7067 37.28 27.04 38.08C26.3733 38.88 25.5333 39.4933 24.52 39.92C23.5333 40.3467 22.5333 40.56 21.52 40.56C20.5867 40.56 19.6267 40.3333 18.64 39.88C17.68 39.4267 16.88 38.7467 16.24 37.84C15.6 36.9333 15.28 35.8133 15.28 34.48C15.28 32.88 15.7333 31.4667 16.64 30.24C17.5467 28.9867 18.76 27.92 20.28 27.04C21.8 26.16 23.4933 25.44 25.36 24.88C27.2267 24.2933 29.1067 23.8667 31 23.6C32.92 23.3333 34.72 23.2 36.4 23.2C37.9467 23.2 39.4533 23.28 40.92 23.44C42.4133 23.5733 43.8133 23.7867 45.12 24.08C45.4933 23.76 45.8667 23.48 46.24 23.24C46.64 23 47 22.8133 47.32 22.68C47.6133 22.5467 47.8533 22.48 48.04 22.48C48.2533 22.48 48.36 22.56 48.36 22.72C48.36 22.8 48.2133 22.9467 47.92 23.16C47.5733 23.4267 47.2667 23.68 47 23.92C46.76 24.1333 46.6133 24.2933 46.56 24.4C49.28 25.0933 51.48 26.0533 53.16 27.28C54.8667 28.48 55.72 29.9067 55.72 31.56C55.72 32.92 55.2533 34.12 54.32 35.16C53.3867 36.1733 52.16 36.9733 50.64 37.56C49.1467 38.1467 47.5467 38.48 45.84 38.56C48.24 39.3333 50.1467 40.3333 51.56 41.56C53 42.7867 53.72 44.3467 53.72 46.24C53.72 47.6533 53.3067 48.9333 52.48 50.08C51.68 51.2267 50.6 52.2133 49.24 53.04C47.9067 53.84 46.44 54.4533 44.84 54.88C43.24 55.3333 41.6533 55.56 40.08 55.56C37.6 55.56 35.4 55.3067 33.48 54.8C31.5867 54.2933 29.6133 53.5733 27.56 52.64C24.9733 54.5867 22.16 55.56 19.12 55.56ZM39.52 54.4C41.1733 54.4 42.68 54.1467 44.04 53.64C45.4 53.1333 46.5733 52.4667 47.56 51.64C48.5733 50.8133 49.3467 49.8933 49.88 48.88C50.44 47.8667 50.72 46.8667 50.72 45.88C50.72 44.9467 50.44 44.0533 49.88 43.2C49.32 42.32 48.44 41.5867 47.24 41C45.6933 40.2267 44.3333 39.6933 43.16 39.4C41.9867 39.08 41.0533 38.7867 40.36 38.52C40.0933 38.3867 39.92 38.2933 39.84 38.24C39.76 38.1867 39.72 38.1333 39.72 38.08C39.72 37.8133 39.8533 37.6 40.12 37.44C40.3867 37.28 40.6933 37.2 41.04 37.2C41.5733 37.2 42.1467 37.24 42.76 37.32C43.3733 37.4 44.0267 37.44 44.72 37.44C46.4533 37.44 47.9467 37.0933 49.2 36.4C50.4533 35.7067 51.4133 34.84 52.08 33.8C52.7733 32.76 53.12 31.7333 53.12 30.72C53.12 29.5733 52.6133 28.5733 51.6 27.72C50.5867 26.84 48.7467 26.0533 46.08 25.36C44.7467 27.2 43.4133 29.2667 42.08 31.56C40.7467 33.8267 39.4133 36.1333 38.08 38.48C36.7467 40.8 35.4 43 34.04 45.08C32.68 47.16 31.32 48.9467 29.96 50.44C29.64 50.7867 29.3867 51.0533 29.2 51.24C29.0133 51.4 28.76 51.6267 28.44 51.92C30.04 52.5867 31.8 53.1733 33.72 53.68C35.64 54.16 37.5733 54.4 39.52 54.4ZM18.32 54.32C19.8133 54.4 21.1733 54.2267 22.4 53.8C23.6533 53.3467 24.8133 52.72 25.88 51.92C25.24 51.6 24.4267 51.1867 23.44 50.68C22.4533 50.1733 21.4533 49.7333 20.44 49.36C19.4267 48.96 18.5467 48.76 17.8 48.76C16.8133 48.76 16.0667 49.0267 15.56 49.56C15.0533 50.0667 14.8 50.6533 14.8 51.32C14.8 52.0133 15.0933 52.68 15.68 53.32C16.2667 53.9333 17.1467 54.2667 18.32 54.32Z" fill="#471700"/>
<path d="M70.8 78.56C69.6267 78.56 68.8 78.0933 68.32 77.16C67.84 76.2533 67.6 75.1867 67.6 73.96C67.6 72.8667 67.7467 71.7867 68.04 70.72C68.36 69.6533 68.7333 68.84 69.16 68.28C68.44 69.1333 67.5467 70.1067 66.48 71.2C65.4133 72.2933 64.24 73.3467 62.96 74.36C61.68 75.3733 60.36 76.2133 59 76.88C57.64 77.5467 56.2933 77.88 54.96 77.88C53.2 77.88 51.88 77.32 51 76.2C50.1467 75.08 49.72 73.5467 49.72 71.6C49.72 70.08 49.9733 68.4533 50.48 66.72C51.0133 64.96 51.7867 63.1733 52.8 61.36C53.28 60.48 53.8133 59.6133 54.4 58.76C55.0133 57.88 55.6667 57.0533 56.36 56.28C55.5333 55.88 54.7333 55.44 53.96 54.96C53.1867 54.4533 52.56 53.8533 52.08 53.16C51.6 52.4667 51.36 51.64 51.36 50.68C51.36 50.1733 51.4667 49.72 51.68 49.32C51.92 48.8933 52.1733 48.68 52.44 48.68C52.68 48.68 52.8 48.8267 52.8 49.12C52.8 49.3067 52.7467 49.5067 52.64 49.72C52.5067 50.0667 52.44 50.3867 52.44 50.68C52.44 51.4 52.6933 52.08 53.2 52.72C53.7067 53.3333 54.32 53.8667 55.04 54.32C55.76 54.7733 56.4267 55.1333 57.04 55.4C58.7467 53.5333 60.6133 51.8133 62.64 50.24C64.6933 48.64 66.8933 47.36 69.24 46.4C71.5867 45.44 74.0533 44.96 76.64 44.96C78.8 44.96 80.4933 45.44 81.72 46.4C82.9467 47.3333 83.56 48.5467 83.56 50.04C83.56 51.3733 83.1733 52.52 82.4 53.48C81.6533 54.4133 80.6667 55.2 79.44 55.84C78.2133 56.4533 76.88 56.9467 75.44 57.32C74.0267 57.6667 72.6267 57.92 71.24 58.08C69.8533 58.2133 68.64 58.28 67.6 58.28C66.08 58.28 64.6 58.1867 63.16 58C61.7467 57.8133 60.3333 57.52 58.92 57.12C58.2267 58.1067 57.4667 59.2533 56.64 60.56C55.84 61.84 55.0667 63.2 54.32 64.64C53.6 66.0533 53 67.4667 52.52 68.88C52.0667 70.2667 51.84 71.56 51.84 72.76C51.84 74.0667 52.1467 75.0533 52.76 75.72C53.3733 76.36 54.2 76.68 55.24 76.68C56.4933 76.68 57.8133 76.3067 59.2 75.56C60.6133 74.7867 62.0267 73.7867 63.44 72.56C64.8533 71.3333 66.2 70 67.48 68.56C68.76 67.12 69.9067 65.6933 70.92 64.28C71.9333 62.8667 72.7333 61.6133 73.32 60.52C73.7733 59.6667 74.2133 59.0667 74.64 58.72C75.0667 58.3467 75.4267 58.16 75.72 58.16C76.0133 58.16 76.24 58.28 76.4 58.52C76.56 58.7333 76.64 59.0267 76.64 59.4C76.64 60.1467 76.3067 60.8933 75.64 61.64C74.7333 62.68 73.8533 63.9467 73 65.44C72.1467 66.9067 71.4533 68.4533 70.92 70.08C70.3867 71.68 70.12 73.1867 70.12 74.6C70.12 75.5867 70.2667 76.2933 70.56 76.72C70.88 77.1467 71.2933 77.36 71.8 77.36C72.5733 77.36 73.3467 77.0933 74.12 76.56C74.92 76.0533 75.68 75.36 76.4 74.48C77.12 73.6 77.7867 72.6267 78.4 71.56C79.0133 70.4667 79.5467 69.3733 80 68.28C80.1333 68.28 80.24 68.2933 80.32 68.32C80.4267 68.3467 80.48 68.4533 80.48 68.64C80.0267 69.7867 79.48 70.9467 78.84 72.12C78.2267 73.2933 77.52 74.3733 76.72 75.36C75.92 76.32 75.0267 77.0933 74.04 77.68C73.0533 78.2667 71.9733 78.56 70.8 78.56ZM67.24 57.32C68.3067 57.32 69.4933 57.2667 70.8 57.16C72.1067 57.0267 73.4 56.8 74.68 56.48C75.9867 56.16 77.1867 55.7067 78.28 55.12C79.3733 54.5333 80.2533 53.7867 80.92 52.88C81.5867 51.9733 81.92 50.8667 81.92 49.56C81.92 48.3867 81.4267 47.4933 80.44 46.88C79.48 46.2667 78.2533 45.96 76.76 45.96C74.28 45.96 72.0133 46.4533 69.96 47.44C67.9333 48.4 66.0667 49.6667 64.36 51.24C62.68 52.8133 61.08 54.5067 59.56 56.32C60.7333 56.6667 61.9333 56.92 63.16 57.08C64.4133 57.24 65.7733 57.32 67.24 57.32Z" fill="#471700"/>
</svg>
