<svg width="100" height="100" viewBox="0 0 100 100" fill="none" xmlns="http://www.w3.org/2000/svg">
<circle cx="50" cy="50" r="50" fill="#FBF8F1"/>
<path d="M17.68 60.34C16.8 60.34 15.78 60.24 14.62 60.04C13.5 59.88 12.4 59.58 11.32 59.14C10.28 58.7 9.4 58.08 8.68 57.28C8 56.44 7.66 55.4 7.66 54.16C7.66 52.68 8.32 51.34 9.64 50.14C10.96 48.9 12.82 48.28 15.22 48.28C16.98 48.28 18.62 48.58 20.14 49.18C21.66 49.74 23.14 50.44 24.58 51.28C26.06 52.08 27.58 52.88 29.14 53.68C31.14 51.76 32.96 49.38 34.6 46.54C36.28 43.7 37.94 40.66 39.58 37.42C41.26 34.14 43.06 30.86 44.98 27.58C46.94 24.3 49.2 21.22 51.76 18.34L55.24 14.44C53.76 14.2 52.22 14.02 50.62 13.9C49.02 13.74 47.36 13.66 45.64 13.66C43.28 13.66 40.7 13.86 37.9 14.26C35.14 14.66 32.38 15.28 29.62 16.12C26.9 16.96 24.4 18.02 22.12 19.3C19.88 20.58 18.08 22.1 16.72 23.86C15.36 25.62 14.68 27.64 14.68 29.92C14.68 31.48 15.02 32.72 15.7 33.64C16.42 34.56 17.3 35.24 18.34 35.68C19.42 36.08 20.5 36.28 21.58 36.28C23.38 36.28 24.9 35.88 26.14 35.08C27.38 34.24 28.3 33.28 28.9 32.2C29.54 31.12 29.86 30.16 29.86 29.32C29.86 29.04 30.06 28.9 30.46 28.9C30.86 28.9 31.06 29.22 31.06 29.86C31.06 31.5 30.56 32.92 29.56 34.12C28.56 35.32 27.3 36.24 25.78 36.88C24.3 37.52 22.8 37.84 21.28 37.84C19.88 37.84 18.44 37.5 16.96 36.82C15.52 36.14 14.32 35.12 13.36 33.76C12.4 32.4 11.92 30.72 11.92 28.72C11.92 26.32 12.6 24.2 13.96 22.36C15.32 20.48 17.14 18.88 19.42 17.56C21.7 16.24 24.24 15.16 27.04 14.32C29.84 13.44 32.66 12.8 35.5 12.4C38.38 12 41.08 11.8 43.6 11.8C45.92 11.8 48.18 11.92 50.38 12.16C52.62 12.36 54.72 12.68 56.68 13.12C57.24 12.64 57.8 12.22 58.36 11.86C58.96 11.5 59.5 11.22 59.98 11.02C60.42 10.82 60.78 10.72 61.06 10.72C61.38 10.72 61.54 10.84 61.54 11.08C61.54 11.2 61.32 11.42 60.88 11.74C60.36 12.14 59.9 12.52 59.5 12.88C59.14 13.2 58.92 13.44 58.84 13.6C62.92 14.64 66.22 16.08 68.74 17.92C71.3 19.72 72.58 21.86 72.58 24.34C72.58 26.38 71.88 28.18 70.48 29.74C69.08 31.26 67.24 32.46 64.96 33.34C62.72 34.22 60.32 34.72 57.76 34.84C61.36 36 64.22 37.5 66.34 39.34C68.5 41.18 69.58 43.52 69.58 46.36C69.58 48.48 68.96 50.4 67.72 52.12C66.52 53.84 64.9 55.32 62.86 56.56C60.86 57.76 58.66 58.68 56.26 59.32C53.86 60 51.48 60.34 49.12 60.34C45.4 60.34 42.1 59.96 39.22 59.2C36.38 58.44 33.42 57.36 30.34 55.96C26.46 58.88 22.24 60.34 17.68 60.34ZM48.28 58.6C50.76 58.6 53.02 58.22 55.06 57.46C57.1 56.7 58.86 55.7 60.34 54.46C61.86 53.22 63.02 51.84 63.82 50.32C64.66 48.8 65.08 47.3 65.08 45.82C65.08 44.42 64.66 43.08 63.82 41.8C62.98 40.48 61.66 39.38 59.86 38.5C57.54 37.34 55.5 36.54 53.74 36.1C51.98 35.62 50.58 35.18 49.54 34.78C49.14 34.58 48.88 34.44 48.76 34.36C48.64 34.28 48.58 34.2 48.58 34.12C48.58 33.72 48.78 33.4 49.18 33.16C49.58 32.92 50.04 32.8 50.56 32.8C51.36 32.8 52.22 32.86 53.14 32.98C54.06 33.1 55.04 33.16 56.08 33.16C58.68 33.16 60.92 32.64 62.8 31.6C64.68 30.56 66.12 29.26 67.12 27.7C68.16 26.14 68.68 24.6 68.68 23.08C68.68 21.36 67.92 19.86 66.4 18.58C64.88 17.26 62.12 16.08 58.12 15.04C56.12 17.8 54.12 20.9 52.12 24.34C50.12 27.74 48.12 31.2 46.12 34.72C44.12 38.2 42.1 41.5 40.06 44.62C38.02 47.74 35.98 50.42 33.94 52.66C33.46 53.18 33.08 53.58 32.8 53.86C32.52 54.1 32.14 54.44 31.66 54.88C34.06 55.88 36.7 56.76 39.58 57.52C42.46 58.24 45.36 58.6 48.28 58.6ZM16.48 58.48C18.72 58.6 20.76 58.34 22.6 57.7C24.48 57.02 26.22 56.08 27.82 54.88C26.86 54.4 25.64 53.78 24.16 53.02C22.68 52.26 21.18 51.6 19.66 51.04C18.14 50.44 16.82 50.14 15.7 50.14C14.22 50.14 13.1 50.54 12.34 51.34C11.58 52.1 11.2 52.98 11.2 53.98C11.2 55.02 11.64 56.02 12.52 56.98C13.4 57.9 14.72 58.4 16.48 58.48Z" fill="#471700"/>
<path d="M72.7 84.84C70.94 84.84 69.7 84.14 68.98 82.74C68.26 81.38 67.9 79.78 67.9 77.94C67.9 76.3 68.12 74.68 68.56 73.08C69.04 71.48 69.6 70.26 70.24 69.42C69.16 70.7 67.82 72.16 66.22 73.8C64.62 75.44 62.86 77.02 60.94 78.54C59.02 80.06 57.04 81.32 55 82.32C52.96 83.32 50.94 83.82 48.94 83.82C46.3 83.82 44.32 82.98 43 81.3C41.72 79.62 41.08 77.32 41.08 74.4C41.08 72.12 41.46 69.68 42.22 67.08C43.02 64.44 44.18 61.76 45.7 59.04C46.42 57.72 47.22 56.42 48.1 55.14C49.02 53.82 50 52.58 51.04 51.42C49.8 50.82 48.6 50.16 47.44 49.44C46.28 48.68 45.34 47.78 44.62 46.74C43.9 45.7 43.54 44.46 43.54 43.02C43.54 42.26 43.7 41.58 44.02 40.98C44.38 40.34 44.76 40.02 45.16 40.02C45.52 40.02 45.7 40.24 45.7 40.68C45.7 40.96 45.62 41.26 45.46 41.58C45.26 42.1 45.16 42.58 45.16 43.02C45.16 44.1 45.54 45.12 46.3 46.08C47.06 47 47.98 47.8 49.06 48.48C50.14 49.16 51.14 49.7 52.06 50.1C54.62 47.3 57.42 44.72 60.46 42.36C63.54 39.96 66.84 38.04 70.36 36.6C73.88 35.16 77.58 34.44 81.46 34.44C84.7 34.44 87.24 35.16 89.08 36.6C90.92 38 91.84 39.82 91.84 42.06C91.84 44.06 91.26 45.78 90.1 47.22C88.98 48.62 87.5 49.8 85.66 50.76C83.82 51.68 81.82 52.42 79.66 52.98C77.54 53.5 75.44 53.88 73.36 54.12C71.28 54.32 69.46 54.42 67.9 54.42C65.62 54.42 63.4 54.28 61.24 54C59.12 53.72 57 53.28 54.88 52.68C53.84 54.16 52.7 55.88 51.46 57.84C50.26 59.76 49.1 61.8 47.98 63.96C46.9 66.08 46 68.2 45.28 70.32C44.6 72.4 44.26 74.34 44.26 76.14C44.26 78.1 44.72 79.58 45.64 80.58C46.56 81.54 47.8 82.02 49.36 82.02C51.24 82.02 53.22 81.46 55.3 80.34C57.42 79.18 59.54 77.68 61.66 75.84C63.78 74 65.8 72 67.72 69.84C69.64 67.68 71.36 65.54 72.88 63.42C74.4 61.3 75.6 59.42 76.48 57.78C77.16 56.5 77.82 55.6 78.46 55.08C79.1 54.52 79.64 54.24 80.08 54.24C80.52 54.24 80.86 54.42 81.1 54.78C81.34 55.1 81.46 55.54 81.46 56.1C81.46 57.22 80.96 58.34 79.96 59.46C78.6 61.02 77.28 62.92 76 65.16C74.72 67.36 73.68 69.68 72.88 72.12C72.08 74.52 71.68 76.78 71.68 78.9C71.68 80.38 71.9 81.44 72.34 82.08C72.82 82.72 73.44 83.04 74.2 83.04C75.36 83.04 76.52 82.64 77.68 81.84C78.88 81.08 80.02 80.04 81.1 78.72C82.18 77.4 83.18 75.94 84.1 74.34C85.02 72.7 85.82 71.06 86.5 69.42C86.7 69.42 86.86 69.44 86.98 69.48C87.14 69.52 87.22 69.68 87.22 69.96C86.54 71.68 85.72 73.42 84.76 75.18C83.84 76.94 82.78 78.56 81.58 80.04C80.38 81.48 79.04 82.64 77.56 83.52C76.08 84.4 74.46 84.84 72.7 84.84ZM67.36 52.98C68.96 52.98 70.74 52.9 72.7 52.74C74.66 52.54 76.6 52.2 78.52 51.72C80.48 51.24 82.28 50.56 83.92 49.68C85.56 48.8 86.88 47.68 87.88 46.32C88.88 44.96 89.38 43.3 89.38 41.34C89.38 39.58 88.64 38.24 87.16 37.32C85.72 36.4 83.88 35.94 81.64 35.94C77.92 35.94 74.52 36.68 71.44 38.16C68.4 39.6 65.6 41.5 63.04 43.86C60.52 46.22 58.12 48.76 55.84 51.48C57.6 52 59.4 52.38 61.24 52.62C63.12 52.86 65.16 52.98 67.36 52.98Z" fill="#471700"/>
</svg>
