<svg width="141" height="121" viewBox="0 0 141 121" fill="none" xmlns="http://www.w3.org/2000/svg">
<path d="M108.5 120.4C105.567 120.4 103.5 119.233 102.3 116.9C101.1 114.633 100.5 111.967 100.5 108.9C100.5 106.167 100.867 103.467 101.6 100.8C102.4 98.1333 103.333 96.1 104.4 94.7C102.6 96.8333 100.367 99.2667 97.7 102C95.0333 104.733 92.1 107.367 88.9 109.9C85.7 112.433 82.4 114.533 79 116.2C75.6 117.867 72.2333 118.7 68.9 118.7C64.5 118.7 61.2 117.3 59 114.5C56.8667 111.7 55.8 107.867 55.8 103C55.8 99.2 56.4333 95.1333 57.7 90.8C59.0333 86.4 60.9667 81.9333 63.5 77.4C64.7 75.2 66.0333 73.0333 67.5 70.9C69.0333 68.7 70.6667 66.6333 72.4 64.7C70.3333 63.7 68.3333 62.6 66.4 61.4C64.4667 60.1333 62.9 58.6333 61.7 56.9C60.5 55.1667 59.9 53.1 59.9 50.7C59.9 49.4333 60.1667 48.3 60.7 47.3C61.3 46.2333 61.9333 45.7 62.6 45.7C63.2 45.7 63.5 46.0667 63.5 46.8C63.5 47.2667 63.3667 47.7667 63.1 48.3C62.7667 49.1667 62.6 49.9667 62.6 50.7C62.6 52.5 63.2333 54.2 64.5 55.8C65.7667 57.3333 67.3 58.6667 69.1 59.8C70.9 60.9333 72.5667 61.8333 74.1 62.5C78.3667 57.8333 83.0333 53.5333 88.1 49.6C93.2333 45.6 98.7333 42.4 104.6 40C110.467 37.6 116.633 36.4 123.1 36.4C128.5 36.4 132.733 37.6 135.8 40C138.867 42.3333 140.4 45.3667 140.4 49.1C140.4 52.4333 139.433 55.3 137.5 57.7C135.633 60.0333 133.167 62 130.1 63.6C127.033 65.1333 123.7 66.3667 120.1 67.3C116.567 68.1667 113.067 68.8 109.6 69.2C106.133 69.5333 103.1 69.7 100.5 69.7C96.7 69.7 93 69.4667 89.4 69C85.8667 68.5333 82.3333 67.8 78.8 66.8C77.0667 69.2667 75.1667 72.1333 73.1 75.4C71.1 78.6 69.1667 82 67.3 85.6C65.5 89.1333 64 92.6667 62.8 96.2C61.6667 99.6667 61.1 102.9 61.1 105.9C61.1 109.167 61.8667 111.633 63.4 113.3C64.9333 114.9 67 115.7 69.6 115.7C72.7333 115.7 76.0333 114.767 79.5 112.9C83.0333 110.967 86.5667 108.467 90.1 105.4C93.6333 102.333 97 99 100.2 95.4C103.4 91.8 106.267 88.2333 108.8 84.7C111.333 81.1667 113.333 78.0333 114.8 75.3C115.933 73.1667 117.033 71.6667 118.1 70.8C119.167 69.8667 120.067 69.4 120.8 69.4C121.533 69.4 122.1 69.7 122.5 70.3C122.9 70.8333 123.1 71.5667 123.1 72.5C123.1 74.3667 122.267 76.2333 120.6 78.1C118.333 80.7 116.133 83.8667 114 87.6C111.867 91.2667 110.133 95.1333 108.8 99.2C107.467 103.2 106.8 106.967 106.8 110.5C106.8 112.967 107.167 114.733 107.9 115.8C108.7 116.867 109.733 117.4 111 117.4C112.933 117.4 114.867 116.733 116.8 115.4C118.8 114.133 120.7 112.4 122.5 110.2C124.3 108 125.967 105.567 127.5 102.9C129.033 100.167 130.367 97.4333 131.5 94.7C131.833 94.7 132.1 94.7333 132.3 94.8C132.567 94.8667 132.7 95.1333 132.7 95.6C131.567 98.4667 130.2 101.367 128.6 104.3C127.067 107.233 125.3 109.933 123.3 112.4C121.3 114.8 119.067 116.733 116.6 118.2C114.133 119.667 111.433 120.4 108.5 120.4ZM99.6 67.3C102.267 67.3 105.233 67.1667 108.5 66.9C111.767 66.5667 115 66 118.2 65.2C121.467 64.4 124.467 63.2667 127.2 61.8C129.933 60.3333 132.133 58.4667 133.8 56.2C135.467 53.9333 136.3 51.1667 136.3 47.9C136.3 44.9667 135.067 42.7333 132.6 41.2C130.2 39.6667 127.133 38.9 123.4 38.9C117.2 38.9 111.533 40.1333 106.4 42.6C101.333 45 96.6667 48.1667 92.4 52.1C88.2 56.0333 84.2 60.2667 80.4 64.8C83.3333 65.6667 86.3333 66.3 89.4 66.7C92.5333 67.1 95.9333 67.3 99.6 67.3Z" fill="#002E5D"/>
<path d="M17.8 82.9C16.3333 82.9 14.6333 82.7333 12.7 82.4C10.8333 82.1333 9 81.6333 7.2 80.9C5.46667 80.1667 4 79.1333 2.8 77.8C1.66667 76.4 1.1 74.6667 1.1 72.6C1.1 70.1333 2.2 67.9 4.4 65.9C6.6 63.8333 9.7 62.8 13.7 62.8C16.6333 62.8 19.3667 63.3 21.9 64.3C24.4333 65.2333 26.9 66.4 29.3 67.8C31.7667 69.1333 34.3 70.4667 36.9 71.8C40.2333 68.6 43.2667 64.6333 46 59.9C48.8 55.1667 51.5667 50.1 54.3 44.7C57.1 39.2333 60.1 33.7667 63.3 28.3C66.5667 22.8333 70.3333 17.7 74.6 12.9L80.4 6.4C77.9333 6 75.3667 5.7 72.7 5.5C70.0333 5.23333 67.2667 5.1 64.4 5.1C60.4667 5.1 56.1667 5.43333 51.5 6.1C46.9 6.76666 42.3 7.8 37.7 9.2C33.1667 10.6 29 12.3667 25.2 14.5C21.4667 16.6333 18.4667 19.1667 16.2 22.1C13.9333 25.0333 12.8 28.4 12.8 32.2C12.8 34.8 13.3667 36.8667 14.5 38.4C15.7 39.9333 17.1667 41.0667 18.9 41.8C20.7 42.4667 22.5 42.8 24.3 42.8C27.3 42.8 29.8333 42.1333 31.9 40.8C33.9667 39.4 35.5 37.8 36.5 36C37.5667 34.2 38.1 32.6 38.1 31.2C38.1 30.7333 38.4333 30.5 39.1 30.5C39.7667 30.5 40.1 31.0333 40.1 32.1C40.1 34.8333 39.2667 37.2 37.6 39.2C35.9333 41.2 33.8333 42.7333 31.3 43.8C28.8333 44.8667 26.3333 45.4 23.8 45.4C21.4667 45.4 19.0667 44.8333 16.6 43.7C14.2 42.5667 12.2 40.8667 10.6 38.6C9 36.3333 8.2 33.5333 8.2 30.2C8.2 26.2 9.33333 22.6667 11.6 19.6C13.8667 16.4667 16.9 13.8 20.7 11.6C24.5 9.4 28.7333 7.6 33.4 6.2C38.0667 4.73333 42.7667 3.66666 47.5 2.99999C52.3 2.33333 56.8 2 61 2C64.8667 2 68.6333 2.2 72.3 2.59999C76.0333 2.93333 79.5333 3.46666 82.8 4.2C83.7333 3.4 84.6667 2.69999 85.6 2.09999C86.6 1.49999 87.5 1.03333 88.3 0.699995C89.0333 0.366662 89.6333 0.199995 90.1 0.199995C90.6333 0.199995 90.9 0.399995 90.9 0.799994C90.9 0.999995 90.5333 1.36666 89.8 1.9C88.9333 2.56666 88.1667 3.2 87.5 3.8C86.9 4.33333 86.5333 4.73333 86.4 5C93.2 6.73333 98.7 9.13333 102.9 12.2C107.167 15.2 109.3 18.7667 109.3 22.9C109.3 26.3 108.133 29.3 105.8 31.9C103.467 34.4333 100.4 36.4333 96.6 37.9C92.8667 39.3667 88.8667 40.2 84.6 40.4C90.6 42.3333 95.3667 44.8333 98.9 47.9C102.5 50.9667 104.3 54.8667 104.3 59.6C104.3 63.1333 103.267 66.3333 101.2 69.2C99.2 72.0667 96.5 74.5333 93.1 76.6C89.7667 78.6 86.1 80.1333 82.1 81.2C78.1 82.3333 74.1333 82.9 70.2 82.9C64 82.9 58.5 82.2667 53.7 81C48.9667 79.7333 44.0333 77.9333 38.9 75.6C32.4333 80.4667 25.4 82.9 17.8 82.9ZM68.8 80C72.9333 80 76.7 79.3667 80.1 78.1C83.5 76.8333 86.4333 75.1667 88.9 73.1C91.4333 71.0333 93.3667 68.7333 94.7 66.2C96.1 63.6667 96.8 61.1667 96.8 58.7C96.8 56.3667 96.1 54.1333 94.7 52C93.3 49.8 91.1 47.9667 88.1 46.5C84.2333 44.5667 80.8333 43.2333 77.9 42.5C74.9667 41.7 72.6333 40.9667 70.9 40.3C70.2333 39.9667 69.8 39.7333 69.6 39.6C69.4 39.4667 69.3 39.3333 69.3 39.2C69.3 38.5333 69.6333 38 70.3 37.6C70.9667 37.2 71.7333 37 72.6 37C73.9333 37 75.3667 37.1 76.9 37.3C78.4333 37.5 80.0667 37.6 81.8 37.6C86.1333 37.6 89.8667 36.7333 93 35C96.1333 33.2667 98.5333 31.1 100.2 28.5C101.933 25.9 102.8 23.3333 102.8 20.8C102.8 17.9333 101.533 15.4333 99 13.3C96.4667 11.1 91.8667 9.13333 85.2 7.4C81.8667 12 78.5333 17.1667 75.2 22.9C71.8667 28.5667 68.5333 34.3333 65.2 40.2C61.8667 46 58.5 51.5 55.1 56.7C51.7 61.9 48.3 66.3667 44.9 70.1C44.1 70.9667 43.4667 71.6333 43 72.1C42.5333 72.5 41.9 73.0667 41.1 73.8C45.1 75.4667 49.5 76.9333 54.3 78.2C59.1 79.4 63.9333 80 68.8 80ZM15.8 79.8C19.5333 80 22.9333 79.5667 26 78.5C29.1333 77.3667 32.0333 75.8 34.7 73.8C33.1 73 31.0667 71.9667 28.6 70.7C26.1333 69.4333 23.6333 68.3333 21.1 67.4C18.5667 66.4 16.3667 65.9 14.5 65.9C12.0333 65.9 10.1667 66.5667 8.9 67.9C7.63333 69.1667 7 70.6333 7 72.3C7 74.0333 7.73333 75.7 9.2 77.3C10.6667 78.8333 12.8667 79.6667 15.8 79.8Z" fill="#002E5D"/>
</svg>
