<svg width="1811" height="975" viewBox="0 0 1811 975" fill="none" xmlns="http://www.w3.org/2000/svg">
<path d="M1741.07 309.371C1726.6 310.059 1712.13 310.678 1697.66 311.215C1668.58 312.288 1639.5 312.837 1610.41 313.07C1552.82 313.56 1495.26 312.814 1437.69 310.643C1419.78 309.978 1401.86 309.067 1383.93 308.449C1505.05 298.249 1626.99 298.331 1748.09 308.916C1745.75 309.067 1743.39 309.254 1741.07 309.371ZM1413.93 321.064C1390.34 318.754 1366.78 315.078 1343.19 312.195C1344.84 312.02 1346.5 311.81 1348.16 311.635C1349.91 311.46 1351.66 311.343 1353.42 311.168C1378.42 314.179 1403.61 315.474 1428.77 316.676C1457.29 318.042 1485.81 318.975 1514.35 319.652C1571.34 320.994 1628.32 321.018 1685.32 320.236C1695.31 320.107 1705.26 319.851 1715.23 319.641C1615.2 330.435 1514.01 330.89 1413.93 321.064ZM1489.18 204.446C1504.83 200.174 1520.52 196.113 1536.25 192.251C1537.01 192.064 1537.8 191.912 1538.57 191.749C1531.21 194.059 1523.82 196.3 1516.48 198.681C1486.77 208.32 1457.22 218.426 1427.73 228.754C1368.41 249.55 1309.31 271.011 1250.13 292.239C1227.17 300.478 1204.21 308.694 1181.23 316.875C1280.92 271.467 1383.51 233.224 1489.18 204.446ZM1160.6 324.25C1162.79 322.978 1164.99 321.706 1167.19 320.434C1182.13 311.775 1197.07 303.092 1212.03 294.433C1241.86 277.138 1272.19 260.59 1303.82 246.878C1362.06 221.647 1423.97 207.071 1486.22 196.148C1462.22 203.069 1438.34 210.327 1414.62 218.146C1358.39 236.69 1302.94 258.735 1248.55 282.226C1218.94 295.017 1190.23 309.172 1161.57 323.9C1161.24 324.028 1160.92 324.133 1160.6 324.25ZM1182.34 368.596C1215.39 377.956 1247.28 391.014 1277.58 407.306C1340.08 440.927 1393.16 489.836 1456.49 522.022C1464.98 526.34 1473.63 530.354 1482.43 533.949C1480.99 533.657 1479.51 533.482 1478.06 533.167C1441.03 525.021 1405.68 510.924 1372.64 492.217C1308.53 455.888 1252.01 406.454 1184.04 377.045C1159.34 366.356 1133.18 358.408 1106.5 355.724C1110.81 355.444 1115.12 355.292 1119.43 355.129C1123.2 355.678 1126.98 356.133 1130.73 356.775C1148.12 359.774 1165.36 363.788 1182.34 368.596ZM1182.08 357.778C1217.28 362.656 1251.74 372.867 1284.14 387.583C1317.75 402.859 1347.4 423.749 1376.17 446.797C1405.41 470.207 1434.47 493.302 1468.19 509.85C1495.61 523.317 1525.46 534.299 1555.67 541.569C1553.01 541.569 1550.32 541.534 1547.64 541.488C1535.96 539.679 1524.33 537.812 1512.86 534.462C1496.59 529.713 1480.79 523.411 1465.51 516.024C1433.66 500.654 1404.36 480.64 1375.43 460.346C1346.69 440.203 1318.08 419.723 1287.35 402.731C1257.29 386.101 1225.2 373.113 1192.25 363.672C1180.88 360.416 1169.38 357.802 1157.81 355.491C1165.88 355.981 1173.96 356.658 1182.08 357.778ZM1059.59 397.655C1094.52 408.671 1126.61 426.748 1156.57 447.754C1216.91 490.046 1269.9 542.795 1335.69 576.941C1344.67 581.598 1353.87 585.869 1363.25 589.662C1325.92 581.539 1289.62 568.387 1255.56 550.964C1218.72 532.128 1186.42 507.049 1154.04 481.41C1122.55 456.472 1090.96 430.938 1054.83 413.094C1026.34 399.032 993.164 389.065 960.887 390.851C961.395 390.618 961.811 390.162 962.307 389.859C976.662 388.179 990.776 386.37 1005.5 387.338C1023.86 388.552 1042.04 392.123 1059.59 397.655ZM1054.04 384.888C1094.89 390.828 1132.87 407.166 1167.5 429.56C1233.9 472.483 1288.3 531.953 1357.72 570.499C1374.51 579.824 1392.06 587.619 1410.19 593.361C1404.98 592.416 1399.79 591.33 1394.67 590.012C1376.94 585.449 1359.79 578.703 1343.31 570.733C1309.66 554.488 1279.26 532.525 1249.83 509.535C1192.1 464.43 1135.69 413.713 1064.71 391.318C1052.4 387.432 1039.76 384.467 1026.98 382.577C1036.02 382.939 1045.05 383.581 1054.04 384.888ZM887.679 432.805C922.021 438.465 954.356 452.714 985.202 468.492C1016.21 484.351 1046.02 502.533 1074.36 522.851C1100.79 541.779 1125.16 563.591 1151.96 581.983C1143.72 578.622 1135.54 575.144 1127.47 571.433C1100.37 559.004 1074.17 544.639 1049.1 528.464C1000.6 497.2 955.187 458.152 899.334 440.74C881.274 435.092 862.234 431.439 843.308 431.579C857.872 430.086 872.666 430.331 887.679 432.805ZM1190.14 607.26C1177.74 606.093 1165.41 604.389 1153.27 601.6C1118.93 593.699 1086.72 579.182 1057.05 560.113C998.773 522.664 947.571 470.732 881.378 447.194C865.269 441.476 848.536 437.799 831.745 436.679C883.04 435.944 930.422 457.265 973.697 485.437C998.127 501.343 1021.56 518.719 1045.8 534.906C1069.13 550.462 1093.45 564.501 1118.57 576.871C1141.39 588.109 1165.51 599.441 1190.14 607.26ZM741.688 489.404C756.967 492.018 772.154 495.391 787.063 499.627C815.186 507.575 842.501 518.346 868.5 531.766C922.956 559.915 968.908 602.207 1024.11 629.094C1033.98 633.903 1044.12 638.15 1054.49 641.733C1046.47 640.59 1038.47 639.166 1030.54 637.45C997.48 630.308 965.63 618.206 934.738 604.471C871.696 576.439 814.424 536.633 752.928 505.474C736.068 496.92 716.936 487.829 698.01 485.81C700.191 485.25 702.395 484.83 704.588 484.351C716.936 486.137 729.364 487.304 741.688 489.404ZM880.062 515.417C936.146 544.23 983.771 586.009 1038.01 617.763C1052.46 626.212 1067.39 633.611 1083.21 639.119C1084.55 639.586 1086.01 639.936 1087.39 640.391C1082.94 639.679 1078.5 638.886 1074.12 637.765C1059.26 633.984 1044.85 628.429 1030.98 621.929C1003.17 608.917 977.759 591.657 952.313 574.549C926.995 557.522 901.7 540.496 874.581 526.492C848.57 513.071 821.325 502.183 793.214 494.177C778.097 489.871 762.76 486.312 747.274 483.663C740.915 482.589 734.476 481.585 728.002 480.722C780.382 475.809 833.234 491.377 880.062 515.417ZM655.451 481.889C668.837 469.355 681.624 456.168 693.89 442.502C719.555 413.923 743.142 383.347 765.68 352.2C811.135 289.368 851.086 222.628 898.261 161.033C911.555 143.692 925.241 126.642 939.793 110.339C941.72 108.191 943.786 106.173 945.736 104.037C920.856 138.498 898.319 174.804 876.566 211.133C830.395 288.201 784.593 367.744 720.894 431.684C704.622 448.022 687.428 463.404 668.953 477.151C659.259 484.363 649.162 490.793 638.961 497.025C644.627 492.018 650.131 486.872 655.451 481.889ZM621.016 504.925C640.611 483.861 657.494 459.611 672.9 436.142C696.845 399.65 718.205 361.524 742.081 324.985C793.179 246.808 856.498 178.632 923.672 114.458C927.964 110.339 932.396 106.382 936.735 102.321C924.837 115.392 913.332 128.824 902.288 142.641C877.928 173.112 855.667 205.263 833.869 237.635C791.067 301.225 750.943 367.324 701.172 425.721C687.001 442.351 672.149 458.385 656.398 473.51C649.024 480.605 641.476 487.514 633.745 494.212C629.556 497.853 625.24 501.343 621.016 504.925ZM720.397 581.784C766.822 599.126 810.05 623.446 854.156 645.864C833.845 637.555 813.812 628.534 793.722 619.712C738.827 595.59 683.597 574.07 623.567 568.095C594.694 565.224 566.317 566.181 537.733 568.772C597.21 550.275 662.456 560.125 720.397 581.784ZM911.232 675.098C917.417 676.837 923.948 678.844 930.561 680.431C934.138 681.761 937.75 683.068 941.397 684.364C904.792 676.86 869.169 665.365 834.053 652.633C763.164 626.901 693.694 595.788 619.251 581.784C585.647 575.459 550.935 572.413 516.904 576.463C519.766 575.191 522.674 574.094 525.582 572.985C586.293 569.181 648.977 574.549 706.803 593.653C761.098 611.578 811.724 638.769 864.969 659.401C880.166 665.283 895.572 670.663 911.232 675.098ZM501.313 569.251C519.639 495.158 555.932 425.243 595.86 361.069C637.795 293.686 685.582 230.295 729.768 164.452C680.066 274.583 629.117 384.514 561.067 484.538C542.072 512.441 519.777 538.85 502.537 568.014C502.133 568.434 501.706 568.83 501.313 569.251ZM702.291 258.186C687.728 297.036 672.253 335.313 652.774 371.957C633.433 408.321 611.08 443.063 586.131 475.739C572.514 493.582 558.009 510.749 542.822 527.262C537.572 532.968 531.986 538.407 526.436 543.868C537.895 528.23 549.019 512.313 560.075 496.558C578.977 469.565 596.644 441.732 613.469 413.374C646.9 357.043 676.661 298.541 704.992 239.456C711.327 226.245 717.42 212.93 723.652 199.696C716.543 219.197 709.573 238.744 702.291 258.186ZM483.658 636.75C524.382 632.024 565.613 632.304 606.314 637.182C646.969 642.048 687.117 651.478 725.637 665.482C765.911 680.128 802.734 701.6 841.543 719.467C857.641 726.878 874.039 733.856 890.852 739.481C876.024 736.844 861.31 733.588 846.793 729.608C812.324 720.121 778.743 707.68 745.324 695.018C680.181 670.348 613.492 644.989 543.619 638.874C515.277 636.388 487.639 637.672 460.405 643.449C450.25 643.787 440.002 644.546 429.824 646.004C447.607 642.013 465.563 638.827 483.658 636.75ZM850.336 747.125C807.131 740.17 765.541 726.236 724.69 710.75C646.173 681.014 567.864 646.098 482.723 643.39C536.349 638.839 591.705 649.249 642.042 665.797C708.569 687.655 772.188 717.892 839.65 736.949C860.907 742.959 883.259 748.572 905.762 751.828C887.194 751.793 868.65 750.066 850.336 747.125ZM490.72 711.823C529.748 719.269 567.714 731.371 604.93 745.2C641.846 758.923 677.827 775.028 714.789 788.565C725.302 792.416 735.953 796.092 746.72 799.313C735.953 797.528 725.209 795.509 714.524 793.152C679.027 785.321 644.165 774.9 609.35 764.42C542.407 744.254 474.714 723.902 404.702 718.755C367.994 716.048 330.605 717.565 294.993 727.414C294.75 727.449 294.52 727.461 294.289 727.496C356.212 701.25 424.735 699.22 490.72 711.823ZM772.627 814.379C758.063 815.465 743.443 815.465 728.879 814.578C689.436 812.174 650.697 803.55 612.858 792.37C536.96 769.952 463.07 737.941 384.15 727.531C372.933 726.049 361.681 725.22 350.442 724.765C365.674 723.808 380.953 723.552 396.301 724.439C431.474 726.469 466.221 732.689 500.379 741.22C568.337 758.188 634.126 782.964 702.038 800.165C721.24 805.032 740.604 809.046 760.094 812.594C764.237 813.341 768.438 813.761 772.627 814.379ZM283.442 626.002C296.32 584.538 307.144 542.433 317.692 500.327C338.59 416.828 361.37 331.976 406.098 257.801C413.876 244.894 422.554 232.792 431.625 221.041C404.148 264.862 383.873 313.537 368.19 362.855C338.833 455.129 323.381 551.652 288.334 642.107C275.814 674.421 260.627 705.37 242.486 734.58C260.316 700.34 272.017 662.751 283.442 626.002ZM283.603 472.086C301.974 387.187 340.979 307.049 396.301 240.529C409.953 224.121 424.689 208.682 440.175 194.048C403.075 237.122 375.899 290.069 355.946 342.187C323.496 426.981 307.479 516.642 283.88 604.074C277.406 628.033 270.124 651.723 261.597 675.039C257.131 687.27 252.215 699.301 247.16 711.275C263.928 632.491 266.524 550.94 283.603 472.086ZM408.222 446.89C418.642 399.312 429.513 351.605 446.915 306.057C462.632 264.908 484.142 226.327 511.353 191.842C533.21 164.138 558.424 140.809 585.658 119.488C482.884 228.428 478.638 391.89 418.584 523.948C409.757 543.331 399.717 562.202 387.773 579.824C380.607 590.408 372.529 600.188 364.451 609.979C384.531 557.592 396.278 501.541 408.222 446.89ZM547.992 193.651C529.817 234.274 516.719 276.963 504.545 319.734C491.839 364.407 480.461 409.523 464.121 453.005C447.953 496.056 426.986 536.481 399.082 572.962C396.797 575.961 394.374 578.902 392.031 581.854C399.936 569.776 407.368 557.347 414.038 544.557C431.671 510.796 444.941 475.015 456.308 438.675C480.242 362.259 497.217 282.565 533.36 210.701C543.249 191.037 554.743 172.19 567.944 154.708C560.744 167.405 553.958 180.324 547.992 193.651ZM919.713 278.06C949.579 241.51 981.186 206.71 1017.48 176.566C1051.26 148.523 1088.07 124.308 1127.01 104.235C1135.3 99.9406 1143.71 95.9146 1152.18 92.0635C1116.14 113.023 1082.73 138.148 1051.65 166.04C1019.48 194.911 989.968 226.852 961.522 259.447C934.658 290.267 910.101 323.13 882.636 353.39C867.761 369.775 851.79 385.424 834.007 398.565C820.782 408.333 806.9 416.525 792.36 423.714C840.204 380.908 879.312 327.495 919.713 278.06ZM1203.3 76.5189C1188.38 84.2328 1173.81 92.6819 1159.7 101.621C1124.91 123.654 1092.4 149.468 1063.15 178.608C1032.19 209.475 1005.72 244.322 977.782 277.909C949.209 312.265 917.902 343.004 881.886 369.308C871.004 377.244 859.845 384.783 848.547 392.088C856.002 385.611 863.18 378.878 870.069 372.097C898.03 344.579 923.475 314.366 949.071 284.619C1005.47 219.057 1066.48 155.572 1139.94 109.452C1159.6 97.1048 1180.13 86.1234 1201.54 77.1725C1202.12 76.9391 1202.72 76.7523 1203.3 76.5189ZM1138.65 239.152C1188.53 200.128 1243.66 168.56 1299.74 139.689C1306.86 136.024 1314.05 132.5 1321.27 128.987C1321.13 129.092 1320.97 129.186 1320.82 129.291C1294.57 146.854 1268.47 164.616 1242.62 182.751C1191.28 218.753 1140.82 256.062 1090.41 293.395C1076.3 303.839 1062.2 314.319 1048.22 324.95C1042.8 329.082 1037.24 333.154 1031.71 337.286C1031.51 336.667 1031.15 336.142 1030.62 335.757C1066.56 303.489 1100.58 268.946 1138.65 239.152ZM1109.38 248.185C1138.05 218.59 1171.42 195.892 1207.85 177.243C1223.19 169.389 1238.82 162.189 1254.52 155.152C1244.43 160.87 1234.34 166.576 1224.43 172.633C1197.73 188.925 1171.79 206.488 1147.09 225.755C1121.48 245.723 1097.48 267.697 1073.82 289.94C1070.18 293.371 1066.48 296.721 1062.83 300.128C1078.27 282.74 1093.23 264.861 1109.38 248.185ZM1380.89 101.073C1370.87 112.929 1360.49 124.459 1349.25 135.417C1324.93 159.119 1298.54 180.721 1271.22 200.781C1209.78 245.851 1142.54 281.911 1075.62 317.797C1064.19 323.935 1052.7 329.957 1041.24 336.037C1042.75 334.87 1044.26 333.691 1045.77 332.548C1058.42 323.083 1071.07 313.584 1083.74 304.166C1108.76 285.587 1133.82 267.044 1159.38 249.224C1210.51 213.583 1262.2 178.69 1314.15 144.263C1328.78 134.566 1343.44 124.95 1358.17 115.392C1365.62 110.56 1373.34 105.939 1380.89 101.073ZM1806.76 303.174C1739.01 292.251 1669.48 289.45 1600.96 288.33C1533.23 287.221 1465.47 289.275 1397.92 294.562C1330.4 299.848 1263.36 308.706 1196.82 320.516C1241.11 304.33 1285.49 288.377 1329.83 272.307C1388.2 251.161 1446.54 229.828 1505.45 210.199C1521.95 204.691 1538.5 199.334 1555.11 194.141C1563.6 191.48 1572.11 188.773 1580.62 186.147C1589.07 183.545 1597.94 181.584 1605.89 177.675C1606.77 177.243 1607.06 176.473 1607.12 175.714C1608.61 173.847 1607.75 170.311 1605.03 170.194C1589.08 169.482 1572.13 173.508 1556.33 175.877C1539.61 178.398 1522.91 181.152 1506.27 184.082C1473.03 189.928 1439.94 196.837 1407.28 205.403C1376.09 213.572 1345.41 223.491 1315.46 235.535C1283.23 248.477 1252.43 264.558 1222.09 281.491C1205.19 290.944 1188.48 300.735 1171.77 310.538C1163.16 315.603 1154.55 320.668 1145.94 325.721C1142.19 327.938 1138.2 330.085 1134.29 332.372C1093.3 340.88 1052.55 350.706 1012.02 361.513C1014.46 360.182 1016.89 358.829 1019.3 357.568C1036.89 348.372 1054.41 339.036 1071.88 329.642C1105.61 311.53 1139.34 293.395 1172.52 274.256C1235.47 237.95 1296.82 197.747 1349.04 146.551C1375.06 121.028 1400.57 92.8919 1419.1 61.1728C1419.55 60.7177 1420.03 60.3092 1420.47 59.8541C1421.37 58.9088 1421.4 57.8002 1420.95 56.8783C1420.85 56.5399 1420.62 56.2832 1420.36 56.0264C1420.3 55.9564 1420.24 55.8863 1420.17 55.8163C1420 55.6879 1419.87 55.5596 1419.68 55.4546C1418.62 54.7544 1417.22 54.556 1416.06 55.4429C1385.69 78.7596 1353.95 98.8437 1319.63 115.695C1285.78 132.313 1250.88 146.656 1217.11 163.449C1183.4 180.184 1150.64 199.556 1122.64 225.067C1090.91 253.973 1065.4 288.89 1035.63 319.722C1028.91 326.678 1021.84 333.341 1014.52 339.713C1008.64 342.432 1002.89 345.711 997.4 348.314C986.714 353.379 975.97 358.327 965.226 363.31C944.547 372.891 923.798 382.332 902.934 391.469C893.887 395.426 884.806 399.242 875.712 403.034C846.17 413.094 816.767 423.562 787.675 434.905C785.598 435.547 783.486 436.201 781.339 436.843C792.625 430.774 803.727 424.262 814.666 417.972C832.784 407.586 850.694 396.791 868.119 385.226C904.1 361.349 937.081 333.913 966.254 301.879C995.807 269.413 1021.99 233.983 1051.84 201.785C1080.24 171.163 1112.06 143.762 1146.36 120.165C1184.63 93.8489 1226.04 74.6051 1267.86 55.0111C1268 54.9644 1268.15 54.9178 1268.3 54.8711C1268.52 54.7894 1268.64 54.6493 1268.84 54.556C1269.01 54.4626 1269.2 54.381 1269.36 54.2993C1269.43 54.2643 1269.43 54.2058 1269.49 54.1708C1273.02 51.5567 1270.5 44.8582 1265.68 45.5234C1247.21 48.1025 1229.05 55.1278 1211.81 62.3982C1147.12 82.9841 1085.88 114.913 1031.78 156.167C996.015 183.44 963.957 214.879 934.565 249.002C902.462 286.253 872.85 325.581 840.412 362.54C808.181 399.265 772.708 432.665 731.164 458.14C710.196 467.01 689.401 476.252 668.71 485.728C684.024 474.887 698.656 463.065 712.458 450.31C743.05 422.01 769.742 389.474 793.929 355.503C847.751 279.881 889.491 196.347 943.012 120.515C971.839 79.6699 1004.45 41.5905 1042.89 9.67297C1048.15 5.30839 1041.49 -3.22234 1036.4 1.27062C1036.29 1.37565 1036.19 1.49238 1036.07 1.59741C1035.4 1.70244 1034.71 1.92422 1034.06 2.51939C965.504 64.0788 896.138 125.37 834.896 194.573C804.28 229.175 774.877 265.025 748.982 303.396C724.413 339.806 703.076 378.282 679.846 415.556C667.187 435.909 653.951 455.923 639.353 474.91C627.479 490.373 614.416 504.494 600.983 518.404C571.314 533.447 542.003 549.248 513.015 565.656C522.535 556.997 531.444 547.439 540.157 538.325C554.328 523.504 567.887 508.1 580.812 492.17C606.43 460.603 629.683 427.133 650.074 391.89C670.695 356.296 688.259 319.057 703.538 280.826C719.278 241.405 732.491 200.98 747.885 161.407C756.39 139.537 765.472 117.877 775.731 96.7664C780.831 86.2633 786.232 75.8887 792.014 65.7475C797.98 55.2678 805.054 45.4067 810.35 34.5652C812.266 30.6208 806.75 28.1466 804.165 30.9708C790.917 45.5116 781.57 65.1406 772.581 82.6106C771.68 84.3728 770.896 86.1817 770.019 87.9322C757.879 107.339 745.624 126.665 732.849 145.711C709.689 180.277 685.374 214.05 661.44 248.08C615.246 313.77 569.687 380.5 534.825 453.216C515.542 493.442 500.956 535.022 490.028 578.318C489.97 578.528 490.028 578.692 490.005 578.902C434.429 611.263 380.33 646.215 327.985 683.605C335.659 671.655 342.525 659.297 348.711 646.623C363.309 626.224 379.811 607.132 395.759 587.701C424.008 553.286 446.476 516.012 463.59 474.747C498.279 391.119 513.811 300.98 547.588 217.061C556.797 194.176 567.31 171.723 579.935 150.542C588.036 136.946 597.498 124.611 606.995 112.253C607.261 112.019 607.515 111.762 607.78 111.529C608.519 110.887 608.934 110.152 609.199 109.382C613.827 103.372 618.431 97.3382 622.897 91.1298C624.698 88.6091 621.524 85.2949 619.031 87.2671C616.135 89.5544 613.504 92.1801 610.838 94.7708C576.577 114.68 545.927 142.209 519.65 171.77C491.632 203.279 468.264 239.001 450.711 277.477C410.564 365.55 400.917 463.182 373.429 555.293C358.566 605.124 339.456 653.415 309.198 695.882C308.806 696.442 308.587 697.002 308.46 697.551C291.346 710.073 274.464 722.933 257.673 735.945C256.958 736.167 256.23 736.33 255.527 736.564C254.58 736.891 254.315 737.707 254.315 738.548C249.791 742.06 245.233 745.515 240.755 749.062C284.445 685.461 308.968 609.185 329.474 535.338C354.804 444.136 373.683 349.959 416.623 264.966C438.606 221.461 466.832 180.919 502.998 148.266C505.676 145.862 504.614 142.245 502.41 140.646C501.995 138.93 500.01 137.565 498.036 138.778C462.274 160.683 430.447 190.932 402.486 222.137C374.145 253.775 349.53 288.832 328.955 326.082C308.206 363.671 292.189 403.98 281.226 445.572C268.393 494.201 262.427 544.218 256.392 594.061C249.572 650.497 242.429 707.237 224.657 761.409C224.404 761.771 224.173 762.168 223.919 762.53C156.215 817.005 91.534 875.46 31.6884 938.525C20.9217 949.88 10.559 961.597 0.265431 973.384C-0.634676 974.41 0.969249 975.577 1.8809 974.679C40.9548 935.724 80.8021 897.762 121.572 860.884C145.044 842.142 168.747 823.762 193.546 806.759C211.941 794.132 230.439 781.657 249.249 769.66C258.469 763.778 267.77 758.013 277.129 752.365C285.819 747.113 297.612 742.469 304.617 734.848C368.975 730.997 433.182 745.503 494.701 765.342C569.041 789.324 642.769 819.164 721.321 825.244C742.346 826.866 763.568 826.831 784.536 824.486C805.342 822.163 826.345 818.359 844.843 808.229C848.04 806.479 847.07 800.796 842.997 801.613C838.981 802.429 834.965 803.328 830.961 804.227C814.182 802.406 797.484 801.507 780.809 797.796C761.329 793.467 742.254 787.62 723.502 780.793C685.697 767.069 648.92 750.638 611.23 736.575C539.822 709.944 464.559 689.545 387.796 694.925C358.393 696.991 328.747 702.907 301.028 713.609C319.827 699.978 338.798 686.593 357.989 673.522C358.497 673.884 359.085 674.106 359.731 673.837C361.439 673.137 363.124 672.484 364.832 671.784C364.97 671.772 365.12 671.667 365.27 671.62C382.13 664.793 399.025 658.631 416.946 655.002C421.608 654.068 426.293 653.298 430.978 652.621C431.128 652.68 431.198 652.855 431.382 652.808C432.017 652.621 432.663 652.481 433.286 652.318C447.838 650.357 462.54 649.61 477.218 649.937C518.473 650.894 559.036 660.277 598.179 672.974C679.708 699.406 756.852 739.855 841.692 755.259C864.841 759.46 888.337 761.631 911.855 761.129C933.619 760.674 956.364 758.62 976.766 750.498C977.193 750.404 977.632 750.369 978.059 750.276C978.578 750.171 978.971 749.879 979.259 749.494C979.928 749.191 980.632 748.969 981.313 748.654C984.233 747.324 983.021 742.609 979.755 743.122C974.551 743.939 969.369 744.826 964.2 745.713C946.428 744.768 929.061 742.912 911.601 737.952C890.541 732.001 870.531 723.272 851.086 713.247C812.255 693.221 774.358 671.492 733.299 656.309C655.924 627.706 572.526 617.635 490.593 625.92C467.802 628.219 445.126 632 422.808 637.299C417.384 638.582 411.995 639.983 406.652 641.558C437.96 621.381 469.602 601.728 501.89 583.22C538.299 580.361 574.695 581.866 610.665 588.401C647.8 595.135 683.92 606.373 719.382 619.21C790.71 645.012 859.972 677.432 934.15 694.388C954.437 699.021 975.012 702.476 995.749 704.238C1006.07 705.113 1016.42 705.545 1026.78 705.498C1033.4 705.475 1040.04 705.393 1046.52 704.389C1048.87 704.343 1051.21 704.389 1053.53 704.238C1055.4 704.109 1056.62 703.012 1057.31 701.6C1057.41 701.565 1057.51 701.542 1057.6 701.507C1061.51 699.885 1060.22 694.482 1056.5 693.723C1051.57 692.743 1046.63 692.626 1041.65 692.731C1025.74 691.739 1010 690.327 994.238 687.153C975.128 683.29 956.433 677.665 938.119 671.013C901.954 657.861 867.449 640.484 832.83 623.68C765.403 590.968 696.729 555.515 620.578 551.559C594.152 550.194 567.633 552.796 542.557 560.486C560.074 550.94 577.673 541.534 595.433 532.478C622.909 518.474 650.789 505.287 678.842 492.474C704.588 488.517 732.491 503.665 754.498 515.102C784.79 530.821 814.136 548.291 843.678 565.4C901.019 598.624 959.572 631.207 1024.46 646.366C1042.2 650.509 1060.26 653.24 1078.44 654.22C1096.97 655.212 1115.89 655.142 1133.82 650.007C1137.91 648.84 1137.15 643.297 1132.85 643.414C1130.72 643.472 1128.57 643.577 1126.44 643.647C1112.82 640.146 1099.28 637.299 1086.14 631.907C1072.19 626.189 1058.76 619.023 1045.8 611.286C1019.24 595.426 994.572 576.498 969.3 558.643C917.486 522.022 861.968 487.736 799.215 474.84C775.604 469.985 751.324 468.398 727.414 470.767C747.239 462.295 767.272 454.301 787.375 446.494C788.182 446.762 789.071 446.797 789.983 446.365C792.833 445 795.706 443.821 798.568 442.642C860.941 435.897 919.979 468.69 969.519 505.311C997.803 526.223 1024.46 549.178 1054.05 568.259C1082.33 586.499 1112.59 600.503 1145.17 608.835C1163.84 613.608 1182.99 616.549 1202.23 617.564C1217.28 618.346 1234.89 619.618 1249.98 615.604C1252.58 615.277 1255.19 614.845 1257.77 614.227C1259 613.935 1259.18 612.161 1257.99 611.788C1258.37 610.376 1257.65 608.649 1255.97 608.439C1248.48 607.47 1240.96 608.158 1233.42 608.579C1224.62 607.027 1215.93 604.914 1207.31 601.857C1190.76 595.998 1175.42 587.444 1160.87 577.641C1131.95 558.176 1106 534.591 1077.6 514.355C1049.28 494.166 1019.49 476.077 988.572 460.241C957.726 444.44 925.46 430.366 891.199 424.274C881.782 422.605 872.019 421.835 862.21 421.578C873.762 418.089 885.302 414.553 896.876 411.145C909.12 407.516 921.306 403.77 933.469 399.907L938.57 398.273C976.997 393.664 1013.84 401.051 1048.92 418.101C1086.07 436.154 1118.05 462.96 1149.75 489.171C1180.59 514.682 1212.54 538.558 1247.99 557.16C1282.34 575.167 1319 588.191 1356.77 596.664C1378.11 601.46 1399.81 604.669 1421.62 606.233C1421.74 606.245 1421.85 606.245 1421.97 606.245C1428.9 607.237 1435.8 607.645 1442.49 607.167C1446.46 607.26 1450.43 607.365 1454.4 607.342C1464.37 607.307 1474.13 607.447 1483.71 604.389C1485.67 603.759 1484.89 600.97 1483.18 600.666C1482.88 600.608 1482.59 600.608 1482.29 600.561C1482.03 599.663 1481.48 598.869 1480.4 598.858C1398.2 598.134 1329.12 544.907 1268.71 494.212C1207.21 442.584 1143.77 389.311 1062.54 375.365C1047.08 372.716 1031.43 371.549 1015.83 371.642C1032.97 367.149 1050.13 362.785 1067.39 358.712C1067.76 359.272 1068.3 359.715 1069.13 359.692C1145.31 357.195 1212.05 396.032 1272.54 438.628C1302.92 460.019 1332.71 482.286 1364.83 500.993C1396.55 519.466 1430.17 533.797 1465.73 542.713C1485.77 547.743 1506.21 551.08 1526.79 552.703C1547.52 554.336 1569.59 555.398 1589.98 550.567C1594.31 549.54 1594.97 542.375 1589.87 542.071C1587.52 541.943 1585.17 541.919 1582.82 541.849C1548.72 529.608 1513.76 520.552 1480.69 505.252C1445.73 489.066 1415.85 466.088 1385.97 441.954C1357.19 418.696 1327.58 397.234 1294.15 381.282C1262.61 366.239 1228.97 355.853 1194.58 350.076C1174.34 346.668 1153.36 344.614 1132.39 344.463C1193.24 332.127 1254.61 322.36 1316.21 315.241C1343.43 322.021 1371.8 325.172 1399.57 328.276C1432.09 331.906 1464.75 334.496 1497.43 336.095C1562.82 339.27 1628.42 337.916 1693.63 332.396C1730.68 329.28 1767.63 325.207 1804.4 319.734C1808.47 319.127 1809.82 315.369 1809.1 312.218C1812.08 309.709 1811.74 303.968 1806.76 303.174Z" fill="#002E5D"/>
</svg>
